<?xml version="1.0" encoding="UTF-8"?>
<svg id="Layer_1" xmlns="http://www.w3.org/2000/svg" version="1.1" viewBox="0 0 1080 1080">
  <!-- Generator: Adobe Illustrator 29.2.1, SVG Export Plug-In . SVG Version: 2.1.0 Build 116)  -->
  <defs>
    <style>
      .st0 {
        fill: #288ce6;
      }
    </style>
  </defs>
  <path class="st0" d="M540,350.1c-4.3,0-8.6-1.6-11.9-4.8l-98.4-98.4H169.6v-33.4h267c4.5,0,8.6,1.7,11.9,4.8l91.5,91.5,91.5-91.5c3.1-3.1,7.4-4.8,11.9-4.8h267v33.4h-260.1l-98.4,98.4c-3.3,3.3-7.6,4.8-11.9,4.8h0Z"/>
  <path class="st0" d="M941.7,276c-26.5,0-48.3-21.7-48.3-48.3s21.7-48.3,48.3-48.3,48.3,21.7,48.3,48.3-21.7,48.3-48.3,48.3ZM941.7,212.9c-8.1,0-14.8,6.7-14.8,14.8s6.7,14.8,14.8,14.8,14.8-6.7,14.8-14.8-6.7-14.8-14.8-14.8Z"/>
  <path class="st0" d="M631.2,148.8c-26.5,0-48.3-21.7-48.3-48.3s21.7-48.3,48.3-48.3,48.3,21.7,48.3,48.3-21.7,48.3-48.3,48.3ZM631.2,85.7c-8.1,0-14.8,6.7-14.8,14.8s6.7,14.8,14.8,14.8,14.8-6.7,14.8-14.8-6.7-14.8-14.8-14.8Z"/>
  <path class="st0" d="M442.6,148.8c-26.5,0-48.3-21.7-48.3-48.3s21.7-48.3,48.3-48.3,48.3,21.7,48.3,48.3-21.7,48.3-48.3,48.3ZM442.6,85.7c-8.1,0-14.8,6.7-14.8,14.8s6.7,14.8,14.8,14.8,14.8-6.7,14.8-14.8-6.7-14.8-14.8-14.8Z"/>
  <path class="st0" d="M138.3,276c-26.5,0-48.3-21.7-48.3-48.3s21.7-48.3,48.3-48.3,48.3,21.7,48.3,48.3-21.7,48.3-48.3,48.3ZM138.3,212.9c-8.1,0-14.8,6.7-14.8,14.8s6.7,14.8,14.8,14.8,14.8-6.7,14.8-14.8-6.7-14.8-14.8-14.8Z"/>
  <path class="st0" d="M540,214.4c-4.3,0-8.6-1.6-11.9-4.8l-75.3-75.3,23.6-23.6,63.6,63.6,63.8-63.6,23.6,23.6-75.5,75.5c-3.3,3.3-7.6,4.8-11.9,4.8v-.2Z"/>
  <path class="st0" d="M540,484.2c-4.3,0-8.6-1.6-11.9-4.8l-98.4-98.4H169.6v-33.4h267c4.5,0,8.6,1.7,11.9,4.8l91.5,91.5,91.5-91.5c3.1-3.1,7.4-4.8,11.9-4.8h267v33.4h-260.1l-98.4,98.4c-3.3,3.3-7.6,4.8-11.9,4.8h0Z"/>
  <path class="st0" d="M941.7,412.5c-26.5,0-48.3-21.7-48.3-48.3s21.7-48.3,48.3-48.3,48.3,21.7,48.3,48.3-21.7,48.3-48.3,48.3ZM941.7,349.4c-8.1,0-14.8,6.7-14.8,14.8s6.7,14.8,14.8,14.8,14.8-6.7,14.8-14.8-6.7-14.8-14.8-14.8Z"/>
  <path class="st0" d="M138.3,412.5c-26.5,0-48.3-21.7-48.3-48.3s21.7-48.3,48.3-48.3,48.3,21.7,48.3,48.3-21.7,48.3-48.3,48.3ZM138.3,349.4c-8.1,0-14.8,6.7-14.8,14.8s6.7,14.8,14.8,14.8,14.8-6.7,14.8-14.8-6.7-14.8-14.8-14.8Z"/>
  <path class="st0" d="M540,618.2c-4.3,0-8.6-1.6-11.9-4.8l-98.4-98.4H169.6v-33.4h267c4.5,0,8.6,1.7,11.9,4.8l91.5,91.5,91.5-91.5c3.1-3.1,7.4-4.8,11.9-4.8h267v33.4h-260.1l-98.4,98.4c-3.3,3.3-7.6,4.8-11.9,4.8h0Z"/>
  <path class="st0" d="M941.7,547.1c-26.5,0-48.3-21.7-48.3-48.3s21.7-48.3,48.3-48.3,48.3,21.7,48.3,48.3-21.7,48.3-48.3,48.3ZM941.7,484c-8.1,0-14.8,6.7-14.8,14.8s6.7,14.8,14.8,14.8,14.8-6.7,14.8-14.8-6.7-14.8-14.8-14.8Z"/>
  <path class="st0" d="M138.3,547.1c-26.5,0-48.3-21.7-48.3-48.3s21.7-48.3,48.3-48.3,48.3,21.7,48.3,48.3-21.7,48.3-48.3,48.3ZM138.3,484c-8.1,0-14.8,6.7-14.8,14.8s6.7,14.8,14.8,14.8,14.8-6.7,14.8-14.8-6.7-14.8-14.8-14.8Z"/>
  <path class="st0" d="M540,752.5c-4.3,0-8.6-1.6-11.9-4.8l-98.4-98.4H169.6v-33.4h267c4.5,0,8.6,1.7,11.9,4.8l91.5,91.5,91.5-91.5c3.1-3.1,7.4-4.8,11.9-4.8h267v33.4h-260.1l-98.4,98.4c-3.3,3.3-7.6,4.8-11.9,4.8h0Z"/>
  <path class="st0" d="M941.7,681.3c-26.5,0-48.3-21.7-48.3-48.3s21.7-48.3,48.3-48.3,48.3,21.7,48.3,48.3-21.7,48.3-48.3,48.3ZM941.7,618.2c-8.1,0-14.8,6.7-14.8,14.8s6.7,14.8,14.8,14.8,14.8-6.7,14.8-14.8-6.7-14.8-14.8-14.8Z"/>
  <path class="st0" d="M138.3,681.3c-26.5,0-48.3-21.7-48.3-48.3s21.7-48.3,48.3-48.3,48.3,21.7,48.3,48.3-21.7,48.3-48.3,48.3ZM138.3,618.2c-8.1,0-14.8,6.7-14.8,14.8s6.7,14.8,14.8,14.8,14.8-6.7,14.8-14.8-6.7-14.8-14.8-14.8Z"/>
  <path class="st0" d="M540,1027.6c-4.5,0-8.6-1.7-11.9-4.8l-114.8-114.8,23.6-23.6,103.1,103.1,103.1-103.1,23.6,23.6-115,115c-3.1,3.1-7.4,4.8-11.9,4.8l.2-.2Z"/>
  <path class="st0" d="M405.9,919.2c-26.5,0-48.3-21.7-48.3-48.3s21.7-48.3,48.3-48.3,48.3,21.7,48.3,48.3-21.7,48.3-48.3,48.3ZM405.9,856.1c-8.1,0-14.8,6.7-14.8,14.8s6.7,14.8,14.8,14.8,14.8-6.7,14.8-14.8-6.7-14.8-14.8-14.8Z"/>
  <path class="st0" d="M673.2,919.2c-26.5,0-48.3-21.7-48.3-48.3s21.7-48.3,48.3-48.3,48.3,21.7,48.3,48.3-21.7,48.3-48.3,48.3ZM673.2,856.1c-8.1,0-14.8,6.7-14.8,14.8s6.7,14.8,14.8,14.8,14.8-6.7,14.8-14.8-6.7-14.8-14.8-14.8Z"/>
  <rect class="st0" x="571.7" y="690.4" width="33.4" height="187.9" transform="translate(-382.2 645.8) rotate(-45)"/>
  <path class="st0" d="M306.8,824.4c-26.5,0-48.3-21.7-48.3-48.3s21.7-48.3,48.3-48.3,48.3,21.7,48.3,48.3-21.7,48.3-48.3,48.3ZM306.8,761.3c-8.1,0-14.8,6.7-14.8,14.8s6.7,14.8,14.8,14.8,14.8-6.7,14.8-14.8-6.7-14.8-14.8-14.8Z"/>
  <rect class="st0" x="301.7" y="682.8" width="159.2" height="33.4" transform="translate(-382.9 474.5) rotate(-45)"/>
  <path class="st0" d="M769.7,824.4c-26.5,0-48.3-21.7-48.3-48.3s21.7-48.3,48.3-48.3,48.3,21.7,48.3,48.3-21.7,48.3-48.3,48.3ZM769.7,761.3c-8.1,0-14.8,6.7-14.8,14.8s6.7,14.8,14.8,14.8,14.8-6.7,14.8-14.8-6.7-14.8-14.8-14.8Z"/>
  <rect class="st0" x="678.7" y="620" width="33.4" height="159.2" transform="translate(-291 696.6) rotate(-45)"/>
  <rect class="st0" x="396.4" y="764.2" width="197" height="33.4" transform="translate(-407.2 578.6) rotate(-45)"/>
</svg>