<?xml version="1.0" encoding="UTF-8"?>
<svg id="Layer_1" xmlns="http://www.w3.org/2000/svg" version="1.1" viewBox="0 0 1080 1080">
  <!-- Generator: Adobe Illustrator 29.2.1, SVG Export Plug-In . SVG Version: 2.1.0 Build 116)  -->
  <defs>
    <style>
      .st0 {
        fill: #afb4be;
      }

      .st1 {
        fill: #288ce6;
      }
    </style>
  </defs>
  <g>
    <path class="st1" d="M555.9,289.7c-2.8,0-5.5-1-7.6-3.1l-63.3-63.3h-167.3v-21.5h171.7c2.9,0,5.5,1.1,7.6,3.1l58.9,58.9,58.9-58.9c2-2,4.8-3.1,7.6-3.1h171.7v21.5h-167.3l-63.3,63.3c-2.1,2.1-4.9,3.1-7.6,3.1h0Z"/>
    <path class="st1" d="M814.3,242c-17.1,0-31-14-31-31s14-31,31-31,31,14,31,31-14,31-31,31ZM814.3,201.4c-5.2,0-9.5,4.3-9.5,9.5s4.3,9.5,9.5,9.5,9.5-4.3,9.5-9.5-4.3-9.5-9.5-9.5Z"/>
    <path class="st1" d="M614.5,160.2c-17.1,0-31-14-31-31s14-31,31-31,31,14,31,31-14,31-31,31ZM614.5,119.6c-5.2,0-9.5,4.3-9.5,9.5s4.3,9.5,9.5,9.5,9.5-4.3,9.5-9.5-4.3-9.5-9.5-9.5Z"/>
    <path class="st1" d="M493.2,160.2c-17.1,0-31-14-31-31s14-31,31-31,31,14,31,31-14,31-31,31ZM493.2,119.6c-5.2,0-9.5,4.3-9.5,9.5s4.3,9.5,9.5,9.5,9.5-4.3,9.5-9.5-4.3-9.5-9.5-9.5Z"/>
    <path class="st1" d="M297.4,242c-17.1,0-31-14-31-31s14-31,31-31,31,14,31,31-14,31-31,31ZM297.4,201.4c-5.2,0-9.5,4.3-9.5,9.5s4.3,9.5,9.5,9.5,9.5-4.3,9.5-9.5-4.3-9.5-9.5-9.5Z"/>
    <path class="st1" d="M555.9,202.4c-2.8,0-5.5-1-7.6-3.1l-48.4-48.4,15.2-15.2,40.9,40.9,41-40.9,15.2,15.2-48.6,48.6c-2.1,2.1-4.9,3.1-7.6,3.1h0Z"/>
    <path class="st1" d="M555.9,375.9c-2.8,0-5.5-1-7.6-3.1l-63.3-63.3h-167.3v-21.5h171.7c2.9,0,5.5,1.1,7.6,3.1l58.9,58.9,58.9-58.9c2-2,4.8-3.1,7.6-3.1h171.7v21.5h-167.3l-63.3,63.3c-2.1,2.1-4.9,3.1-7.6,3.1h0Z"/>
    <path class="st1" d="M814.3,329.8c-17.1,0-31-14-31-31s14-31,31-31,31,14,31,31-14,31-31,31ZM814.3,289.2c-5.2,0-9.5,4.3-9.5,9.5s4.3,9.5,9.5,9.5,9.5-4.3,9.5-9.5-4.3-9.5-9.5-9.5Z"/>
    <path class="st1" d="M297.4,329.8c-17.1,0-31-14-31-31s14-31,31-31,31,14,31,31-14,31-31,31ZM297.4,289.2c-5.2,0-9.5,4.3-9.5,9.5s4.3,9.5,9.5,9.5,9.5-4.3,9.5-9.5-4.3-9.5-9.5-9.5Z"/>
    <path class="st1" d="M555.9,462.2c-2.8,0-5.5-1-7.6-3.1l-63.3-63.3h-167.3v-21.5h171.7c2.9,0,5.5,1.1,7.6,3.1l58.9,58.9,58.9-58.9c2-2,4.8-3.1,7.6-3.1h171.7v21.5h-167.3l-63.3,63.3c-2.1,2.1-4.9,3.1-7.6,3.1h0Z"/>
    <path class="st1" d="M814.3,416.4c-17.1,0-31-14-31-31s14-31,31-31,31,14,31,31-14,31-31,31ZM814.3,375.8c-5.2,0-9.5,4.3-9.5,9.5s4.3,9.5,9.5,9.5,9.5-4.3,9.5-9.5-4.3-9.5-9.5-9.5Z"/>
    <path class="st1" d="M297.4,416.4c-17.1,0-31-14-31-31s14-31,31-31,31,14,31,31-14,31-31,31ZM297.4,375.8c-5.2,0-9.5,4.3-9.5,9.5s4.3,9.5,9.5,9.5,9.5-4.3,9.5-9.5-4.3-9.5-9.5-9.5Z"/>
    <path class="st1" d="M555.9,548.5c-2.8,0-5.5-1-7.6-3.1l-63.3-63.3h-167.3v-21.5h171.7c2.9,0,5.5,1.1,7.6,3.1l58.9,58.9,58.9-58.9c2-2,4.8-3.1,7.6-3.1h171.7v21.5h-167.3l-63.3,63.3c-2.1,2.1-4.9,3.1-7.6,3.1h0Z"/>
    <path class="st1" d="M814.3,502.7c-17.1,0-31-14-31-31s14-31,31-31,31,14,31,31-14,31-31,31ZM814.3,462.2c-5.2,0-9.5,4.3-9.5,9.5s4.3,9.5,9.5,9.5,9.5-4.3,9.5-9.5-4.3-9.5-9.5-9.5Z"/>
    <path class="st1" d="M297.4,502.7c-17.1,0-31-14-31-31s14-31,31-31,31,14,31,31-14,31-31,31ZM297.4,462.2c-5.2,0-9.5,4.3-9.5,9.5s4.3,9.5,9.5,9.5,9.5-4.3,9.5-9.5-4.3-9.5-9.5-9.5Z"/>
    <path class="st1" d="M555.9,725.5c-2.9,0-5.5-1.1-7.6-3.1l-73.8-73.8,15.2-15.2,66.3,66.3,66.3-66.3,15.2,15.2-73.9,73.9c-2,2-4.8,3.1-7.6,3.1h.1Z"/>
    <path class="st1" d="M469.6,655.7c-17.1,0-31-14-31-31s14-31,31-31,31,14,31,31-14,31-31,31ZM469.6,615.2c-5.2,0-9.5,4.3-9.5,9.5s4.3,9.5,9.5,9.5,9.5-4.3,9.5-9.5-4.3-9.5-9.5-9.5Z"/>
    <path class="st1" d="M641.6,655.7c-17.1,0-31-14-31-31s14-31,31-31,31,14,31,31-14,31-31,31ZM641.6,615.2c-5.2,0-9.5,4.3-9.5,9.5s4.3,9.5,9.5,9.5,9.5-4.3,9.5-9.5-4.3-9.5-9.5-9.5Z"/>
    <rect class="st1" x="576.3" y="508.6" width="21.5" height="120.8" transform="translate(-230.4 581.7) rotate(-45)"/>
    <path class="st1" d="M405.9,594.8c-17.1,0-31-14-31-31s14-31,31-31,31,14,31,31-14,31-31,31ZM405.9,554.2c-5.2,0-9.5,4.3-9.5,9.5s4.3,9.5,9.5,9.5,9.5-4.3,9.5-9.5-4.3-9.5-9.5-9.5Z"/>
    <rect class="st1" x="402.6" y="503.7" width="102.4" height="21.5" transform="translate(-230.9 471.5) rotate(-45)"/>
    <path class="st1" d="M703.6,594.8c-17.1,0-31-14-31-31s14-31,31-31,31,14,31,31-14,31-31,31ZM703.6,554.2c-5.2,0-9.5,4.3-9.5,9.5s4.3,9.5,9.5,9.5,9.5-4.3,9.5-9.5-4.3-9.5-9.5-9.5Z"/>
    <rect class="st1" x="645.1" y="463.3" width="21.5" height="102.4" transform="translate(-171.7 614.4) rotate(-45)"/>
    <rect class="st1" x="463.5" y="556" width="126.7" height="21.5" transform="translate(-246.5 538.5) rotate(-45)"/>
  </g>
  <g>
    <path class="st1" d="M40,827h23.4v151.9h-23.4v-151.9Z"/>
    <path class="st1" d="M88.1,909c0-43.8,24.1-72.3,59.3-72.3s36.1,9.9,44.5,25.2h.6v-76.9h23.4v194h-22.3v-23.6h-.4c-9,16.2-25.1,26.1-45.1,26.1-35.6,0-59.9-28.5-59.9-72.3h0ZM112.1,909c0,31.7,15.6,51.8,40.4,51.8s40.2-20.4,40.2-51.8-16.2-51.8-40.2-51.8-40.4,20.2-40.4,51.8Z"/>
    <path class="st1" d="M363.2,938.9c-4,24.5-27.7,42.5-58.2,42.5s-64.4-27.8-64.4-71.7,24.7-72.8,63.3-72.8,61.1,27.4,61.1,69.7v8.9h-100.3v1.3c0,26.7,15.7,44.3,40.9,44.3s30.8-9,34.7-22.2h22.9ZM264.7,897h75.9c-.6-23.4-15.2-40-37.3-40s-37.3,16.9-38.7,40h0Z"/>
    <path class="st1" d="M388.4,839.1h22.1v22.3h.6c7.8-15.1,22.7-24.7,44.3-24.7,30.6,0,48.4,19.7,48.4,51.4v90.8h-23.4v-86.6c0-22.6-10.6-34.9-32.2-34.9s-36.5,15.6-36.5,39.2v82.3h-23.4v-139.8h0Z"/>
    <path class="st1" d="M564.4,805.3v33.7h27.2v19.2h-27.2v83c0,12.7,5.3,18.5,17.3,18.5s8.1-.4,9.6-.7v19.6c-2.8.7-9.3,1.1-14.7,1.1-25.7,0-35.6-10.5-35.6-37.4v-84.3h-20.8v-19.2h20.8v-33.7h23.4Z"/>
    <path class="st1" d="M617.6,839.1h23.4v139.8h-23.4v-139.8Z"/>
    <path class="st0" d="M682.6,978.9v-164.6h-65v-29.3h161.6v29.3h-64.2v164.6h-32.5Z"/>
    <path class="st0" d="M882.6,936.5c-4.3,26.8-29.3,45.5-63.1,45.5s-68.5-28-68.5-73.5,26.1-74.7,67.2-74.7,65.7,28,65.7,71.4v10.9h-99.7v2c0,22.8,14,38.1,35.9,38.1s27.4-7.8,31-19.6h31.4ZM784.6,893.9h66.5c-.7-20.2-13.5-34.3-32.8-34.3s-32.4,14.4-33.7,34.3Z"/>
    <path class="st0" d="M999,836.5h38.6l-57,61.3,59.4,81.2h-38.7l-45-60.9-11.3,11.4v49.4h-33.5v-194h33.5v110.9h.4l53.7-59.4h-.1Z"/>
    <rect class="st1" x="40" y="784.9" width="23.4" height="23.4"/>
  </g>
</svg>