<svg width="68" height="60" viewBox="0 0 68 60" fill="none" xmlns="http://www.w3.org/2000/svg">
<g clip-path="url(#clip0_9_21)">
<path d="M35.0792 13.0062C34.89 13.0062 34.7027 12.9387 34.5598 12.7961L30.2546 8.49796H18.8794V7.03699H30.5577C30.7546 7.03699 30.9341 7.11216 31.077 7.24707L35.0811 11.2445L39.0852 7.24707C39.2203 7.11216 39.4095 7.03699 39.6045 7.03699H51.2828V8.49796H39.9076L35.6024 12.7961C35.4595 12.9387 35.2703 13.0062 35.083 13.0062H35.0792Z" fill="white"/>
<path d="M52.6517 9.77006C51.4914 9.77006 50.5415 8.82178 50.5415 7.66341C50.5415 6.50504 51.4914 5.55676 52.6517 5.55676C53.812 5.55676 54.7618 6.50504 54.7618 7.66341C54.7618 8.82178 53.812 9.77006 52.6517 9.77006ZM52.6517 7.01388C52.2964 7.01388 52.003 7.30684 52.003 7.66148C52.003 8.01613 52.2964 8.30909 52.6517 8.30909C53.0069 8.30909 53.3003 8.01613 53.3003 7.66148C53.3003 7.30684 53.0069 7.01388 52.6517 7.01388Z" fill="white"/>
<path d="M39.0657 4.21525C37.9054 4.21525 36.9556 3.26697 36.9556 2.1086C36.9556 0.950234 37.9054 0.00195312 39.0657 0.00195312C40.226 0.00195312 41.1759 0.950234 41.1759 2.1086C41.1759 3.26697 40.226 4.21525 39.0657 4.21525ZM39.0657 1.461C38.7105 1.461 38.417 1.75396 38.417 2.1086C38.417 2.46324 38.7105 2.75621 39.0657 2.75621C39.421 2.75621 39.7144 2.46324 39.7144 2.1086C39.7144 1.75396 39.421 1.461 39.0657 1.461Z" fill="white"/>
<path d="M30.8182 4.21525C29.6579 4.21525 28.708 3.26697 28.708 2.1086C28.708 0.950234 29.6579 0.00195312 30.8182 0.00195312C31.9785 0.00195312 32.9283 0.950234 32.9283 2.1086C32.9283 3.26697 31.9785 4.21525 30.8182 4.21525ZM30.8182 1.461C30.4629 1.461 30.1695 1.75396 30.1695 2.1086C30.1695 2.46324 30.4629 2.75621 30.8182 2.75621C31.1734 2.75621 31.4669 2.46324 31.4669 2.1086C31.4669 1.75396 31.1734 1.461 30.8182 1.461Z" fill="white"/>
<path d="M17.5047 9.77006C16.3444 9.77006 15.3945 8.82178 15.3945 7.66341C15.3945 6.50504 16.3444 5.55676 17.5047 5.55676C18.665 5.55676 19.6148 6.50504 19.6148 7.66341C19.6148 8.82178 18.665 9.77006 17.5047 9.77006ZM17.5047 7.01388C17.1495 7.01388 16.856 7.30684 16.856 7.66148C16.856 8.01613 17.1495 8.30909 17.5047 8.30909C17.8599 8.30909 18.1534 8.01613 18.1534 7.66148C18.1534 7.30684 17.8599 7.01388 17.5047 7.01388Z" fill="white"/>
<path d="M35.0791 7.08323C34.8899 7.08323 34.7026 7.01577 34.5597 6.87314L31.2661 3.58499L32.299 2.55383L35.081 5.33122L37.8707 2.55383L38.9036 3.58499L35.6023 6.88085C35.4594 7.02348 35.2702 7.09094 35.0829 7.09094V7.08323H35.0791Z" fill="white"/>
<path d="M35.0792 18.8616C34.89 18.8616 34.7027 18.7942 34.5598 18.6515L30.2546 14.3534H18.8794V12.8925H30.5577C30.7546 12.8925 30.9341 12.9676 31.077 13.1025L35.0811 17.1L39.0852 13.1025C39.2203 12.9676 39.4095 12.8925 39.6045 12.8925H51.2828V14.3534H39.9076L35.6024 18.6515C35.4595 18.7942 35.2703 18.8616 35.083 18.8616H35.0792Z" fill="white"/>
<path d="M52.6517 15.7295C51.4914 15.7295 50.5415 14.7813 50.5415 13.6229C50.5415 12.4645 51.4914 11.5162 52.6517 11.5162C53.812 11.5162 54.7618 12.4645 54.7618 13.6229C54.7618 14.7813 53.812 15.7295 52.6517 15.7295ZM52.6517 12.9753C52.2964 12.9753 52.003 13.2682 52.003 13.6229C52.003 13.9775 52.2964 14.2705 52.6517 14.2705C53.0069 14.2705 53.3003 13.9775 53.3003 13.6229C53.3003 13.2682 53.0069 12.9753 52.6517 12.9753Z" fill="white"/>
<path d="M17.5047 15.7295C16.3444 15.7295 15.3945 14.7813 15.3945 13.6229C15.3945 12.4645 16.3444 11.5162 17.5047 11.5162C18.665 11.5162 19.6148 12.4645 19.6148 13.6229C19.6148 14.7813 18.665 15.7295 17.5047 15.7295ZM17.5047 12.9753C17.1495 12.9753 16.856 13.2682 16.856 13.6229C16.856 13.9775 17.1495 14.2705 17.5047 14.2705C17.8599 14.2705 18.1534 13.9775 18.1534 13.6229C18.1534 13.2682 17.8599 12.9753 17.5047 12.9753Z" fill="white"/>
<path d="M35.0792 24.717C34.89 24.717 34.7027 24.6495 34.5598 24.5069L30.2546 20.2088H18.8794V18.7478H30.5577C30.7546 18.7478 30.9341 18.823 31.077 18.9579L35.0811 22.9553L39.0852 18.9579C39.2203 18.823 39.4095 18.7478 39.6045 18.7478H51.2828V20.2088H39.9076L35.6024 24.5069C35.4595 24.6495 35.2703 24.717 35.083 24.717H35.0792Z" fill="white"/>
<path d="M52.6517 21.6081C51.4914 21.6081 50.5415 20.6598 50.5415 19.5014C50.5415 18.3431 51.4914 17.3948 52.6517 17.3948C53.812 17.3948 54.7618 18.3431 54.7618 19.5014C54.7618 20.6598 53.812 21.6081 52.6517 21.6081ZM52.6517 18.8538C52.2964 18.8538 52.003 19.1468 52.003 19.5014C52.003 19.8561 52.2964 20.149 52.6517 20.149C53.0069 20.149 53.3003 19.8561 53.3003 19.5014C53.3003 19.1468 53.0069 18.8538 52.6517 18.8538Z" fill="white"/>
<path d="M17.5047 21.6081C16.3444 21.6081 15.3945 20.6598 15.3945 19.5014C15.3945 18.3431 16.3444 17.3948 17.5047 17.3948C18.665 17.3948 19.6148 18.3431 19.6148 19.5014C19.6148 20.6598 18.665 21.6081 17.5047 21.6081ZM17.5047 18.8538C17.1495 18.8538 16.856 19.1468 16.856 19.5014C16.856 19.8561 17.1495 20.149 17.5047 20.149C17.8599 20.149 18.1534 19.8561 18.1534 19.5014C18.1534 19.1468 17.8599 18.8538 17.5047 18.8538Z" fill="white"/>
<path d="M35.0792 30.5801C34.89 30.5801 34.7027 30.5127 34.5598 30.37L30.2546 26.0719H18.8794V24.611H30.5577C30.7546 24.611 30.9341 24.6861 31.077 24.821L35.0811 28.8185L39.0852 24.821C39.2203 24.6861 39.4095 24.611 39.6045 24.611H51.2828V26.0719H39.9076L35.6024 30.37C35.4595 30.5127 35.2703 30.5801 35.083 30.5801H35.0792Z" fill="white"/>
<path d="M52.6517 27.4712C51.4914 27.4712 50.5415 26.523 50.5415 25.3646C50.5415 24.2062 51.4914 23.2579 52.6517 23.2579C53.812 23.2579 54.7618 24.2062 54.7618 25.3646C54.7618 26.523 53.812 27.4712 52.6517 27.4712ZM52.6517 24.717C52.2964 24.717 52.003 25.0099 52.003 25.3646C52.003 25.7192 52.2964 26.0122 52.6517 26.0122C53.0069 26.0122 53.3003 25.7192 53.3003 25.3646C53.3003 25.0099 53.0069 24.717 52.6517 24.717Z" fill="white"/>
<path d="M17.5047 27.4712C16.3444 27.4712 15.3945 26.523 15.3945 25.3646C15.3945 24.2062 16.3444 23.2579 17.5047 23.2579C18.665 23.2579 19.6148 24.2062 19.6148 25.3646C19.6148 26.523 18.665 27.4712 17.5047 27.4712ZM17.5047 24.717C17.1495 24.717 16.856 25.0099 16.856 25.3646C16.856 25.7192 17.1495 26.0122 17.5047 26.0122C17.8599 26.0122 18.1534 25.7192 18.1534 25.3646C18.1534 25.0099 17.8599 24.717 17.5047 24.717Z" fill="white"/>
<path d="M35.0789 42.5917C34.882 42.5917 34.7025 42.5165 34.5596 42.3816L29.5381 37.3684L30.571 36.3373L35.0789 40.8378L39.5869 36.3373L40.6198 37.3684L35.5906 42.3893C35.4554 42.5242 35.2662 42.5994 35.0712 42.5994L35.0789 42.5917Z" fill="white"/>
<path d="M29.2117 37.8581C28.0514 37.8581 27.1016 36.9098 27.1016 35.7514C27.1016 34.5931 28.0514 33.6448 29.2117 33.6448C30.372 33.6448 31.3219 34.5931 31.3219 35.7514C31.3219 36.9098 30.372 37.8581 29.2117 37.8581ZM29.2117 35.1019C28.8565 35.1019 28.563 35.3949 28.563 35.7495C28.563 36.1041 28.8565 36.3971 29.2117 36.3971C29.567 36.3971 29.8604 36.1041 29.8604 35.7495C29.8604 35.3949 29.567 35.1019 29.2117 35.1019Z" fill="white"/>
<path d="M40.9056 37.8581C39.7453 37.8581 38.7954 36.9098 38.7954 35.7514C38.7954 34.5931 39.7453 33.6448 40.9056 33.6448C42.0659 33.6448 43.0157 34.5931 43.0157 35.7514C43.0157 36.9098 42.0659 37.8581 40.9056 37.8581ZM40.9056 35.1019C40.5503 35.1019 40.2569 35.3949 40.2569 35.7495C40.2569 36.1041 40.5503 36.3971 40.9056 36.3971C41.2608 36.3971 41.5543 36.1041 41.5543 35.7495C41.5543 35.3949 41.2608 35.1019 40.9056 35.1019Z" fill="white"/>
<path d="M34.8107 28.5503L33.7759 29.5834L39.586 35.3838L40.6207 34.3507L34.8107 28.5503Z" fill="white"/>
<path d="M24.8777 33.7179C23.7174 33.7179 22.7676 32.7697 22.7676 31.6113C22.7676 30.4529 23.7174 29.5046 24.8777 29.5046C26.038 29.5046 26.9879 30.4529 26.9879 31.6113C26.9879 32.7697 26.038 33.7179 24.8777 33.7179ZM24.8777 30.9637C24.5225 30.9637 24.2291 31.2566 24.2291 31.6113C24.2291 31.9659 24.5225 32.2589 24.8777 32.2589C25.233 32.2589 25.5264 31.9659 25.5264 31.6113C25.5264 31.2566 25.233 30.9637 24.8777 30.9637Z" fill="white"/>
<path d="M30.0822 25.2909L25.1567 30.2081L26.1915 31.2412L31.117 26.3239L30.0822 25.2909Z" fill="white"/>
<path d="M45.1277 33.7179C43.9674 33.7179 43.0176 32.7697 43.0176 31.6113C43.0176 30.4529 43.9674 29.5046 45.1277 29.5046C46.288 29.5046 47.2379 30.4529 47.2379 31.6113C47.2379 32.7697 46.288 33.7179 45.1277 33.7179ZM45.1277 30.9637C44.7725 30.9637 44.479 31.2566 44.479 31.6113C44.479 31.9659 44.7725 32.2589 45.1277 32.2589C45.483 32.2589 45.7764 31.9659 45.7764 31.6113C45.7764 31.2566 45.483 30.9637 45.1277 30.9637Z" fill="white"/>
<path d="M39.9313 25.2926L38.8965 26.3257L43.8219 31.2429L44.8567 30.2099L39.9313 25.2926Z" fill="white"/>
<path d="M35.6332 28.2621L29.5405 34.3446L30.5753 35.3777L36.668 29.2951L35.6332 28.2621Z" fill="white"/>
<path d="M0 49.486H1.59082V59.7976H0V49.486Z" fill="white"/>
<path d="M3.27246 55.0465C3.27246 52.0745 4.90769 50.1394 7.30551 50.1394C9.70333 50.1394 9.76318 50.8101 10.3288 51.847H10.3675V46.6238H11.9583V59.7956H10.4428V58.192H10.4119C9.80179 59.2907 8.70713 59.9614 7.34412 59.9614C4.92506 59.9614 3.27246 58.0263 3.27246 55.0542V55.0465ZM4.89997 55.0465C4.89997 57.1994 5.96373 58.5621 7.64336 58.5621C9.323 58.5621 10.379 57.1763 10.379 55.0465C10.379 52.9167 9.27859 51.5309 7.64336 51.5309C6.00814 51.5309 4.89997 52.9013 4.89997 55.0465Z" fill="white"/>
<path d="M21.976 57.08C21.7038 58.7433 20.0917 59.9634 18.0183 59.9634C15.9448 59.9634 13.6377 58.0745 13.6377 55.0948C13.6377 52.115 15.3193 50.149 17.943 50.149C20.5667 50.149 22.0976 52.009 22.0976 54.8827V55.4841H15.2749V55.5747C15.2749 57.3884 16.3444 58.5853 18.0569 58.5853C19.7693 58.5853 20.1535 57.9762 20.4161 57.08H21.976ZM15.2806 54.2351H20.445C20.4064 52.647 19.4122 51.5175 17.9121 51.5175C16.412 51.5175 15.3791 52.6624 15.2806 54.2351Z" fill="white"/>
<path d="M23.6943 50.3052H25.1944V51.8182H25.233C25.7601 50.7947 26.7795 50.1394 28.2486 50.1394C30.3298 50.1394 31.5423 51.4789 31.5423 53.6319V59.7957H29.9514V53.9171C29.9514 52.381 29.2275 51.5464 27.766 51.5464C26.3045 51.5464 25.2852 52.6084 25.2852 54.2101V59.7938H23.6943V50.3032V50.3052Z" fill="white"/>
<path d="M35.6583 48.0095V50.2973H37.5059V51.6003H35.6583V57.2379C35.6583 58.1033 36.0193 58.4946 36.834 58.4946C37.6488 58.4946 37.3843 58.4637 37.4905 58.4503V59.7821C37.3013 59.8264 36.8572 59.8573 36.4885 59.8573C34.7393 59.8573 34.0694 59.1422 34.0694 57.3208V51.6003H32.6523V50.2973H34.0694V48.0095H35.6602H35.6583Z" fill="white"/>
<path d="M39.2783 50.3052H40.8691V59.7957H39.2783V50.3052Z" fill="white"/>
<path d="M43.6956 59.7956V48.6186H39.2783V46.6315H50.2693V48.6186H45.9042V59.7956H43.6956Z" fill="white"/>
<path d="M57.2946 56.9142C57.0011 58.7356 55.3041 60 53.0048 60C50.7054 60 48.3462 58.0957 48.3462 55.0099C48.3462 51.9242 50.1185 49.937 52.914 49.937C55.7095 49.937 57.3853 51.8413 57.3853 54.7844V55.5226H50.6069V55.6575C50.6069 57.2072 51.5568 58.246 53.0492 58.246C54.5415 58.246 54.9122 57.7199 55.1593 56.9142H57.2926H57.2946ZM50.6301 54.0231H55.1535C55.1091 52.6527 54.2346 51.6967 52.9217 51.6967C51.6089 51.6967 50.7208 52.6759 50.6301 54.0231Z" fill="white"/>
<path d="M65.2104 50.1259H67.8341L63.9594 54.2871L68.0002 59.7956H65.3688L62.3087 55.6633L61.5404 56.4381V59.7956H59.2642V46.6238H61.5404V54.1503H61.5712L65.2201 50.1162L65.2124 50.1239L65.2104 50.1259Z" fill="white"/>
<path d="M1.59082 46.6257H0V48.2139H1.59082V46.6257Z" fill="white"/>
</g>
<defs>
<clipPath id="clip0_9_21">
<rect width="68" height="60" fill="white"/>
</clipPath>
</defs>
</svg>
